<svg xmlns="http://www.w3.org/2000/svg" width="646" height="1459" viewBox="0 0 646 1459"><defs><style>.a{fill:#afafaf;}.a,.b,.c{stroke:#000;stroke-miterlimit:10;}.b{fill:#e5e5e5;}.c{fill:#fff;}</style></defs><path class="a" d="M320.9,619.2a30.8,30.8,0,0,1-6.1,5.8l-14.9-13-9.1-7.8-6.4-5.3-9.1-3h-4.5l-3,15.1-19.7-19.7,15.1-3v-6l-15.1-4.6,21.2-21.2,4.5,15.2h6.1l3-15.2,19.7,19.7-15.2,3v4.6c2.3,6.5,2.1,6.6,3.1,9l3.7,3c3.1,2.6,6.2,5.2,9.3,8C309.3,608.8,315.1,614.2,320.9,619.2Z"/><rect class="b" x="105.9" y="1095.2" width="441.8" height="21.18"/><rect class="a" x="99.8" y="1089.1" width="453.9" height="6.05"/><rect class="b" x="164.4" y="953" width="48.4" height="115"/><rect class="b" x="156.8" y="949.9" width="63.6" height="15.13"/><rect class="b" x="156.8" y="1052.8" width="63.6" height="15.13"/><rect class="b" x="300.5" y="953" width="48.4" height="115"/><rect class="b" x="293" y="949.9" width="63.6" height="15.13"/><rect class="b" x="293" y="1052.8" width="63.6" height="15.13"/><rect class="b" x="436.7" y="953" width="48.4" height="115"/><rect class="b" x="429.2" y="949.9" width="63.6" height="15.13"/><rect class="b" x="429.2" y="1052.8" width="63.6" height="15.13"/><rect class="b" x="163.4" y="931.8" width="323.8" height="18.16"/><rect class="b" x="130.1" y="871.3" width="387.4" height="21.18"/><polygon class="b" points="487.2 931.8 517.4 892.4 130.1 892.4 163.4 931.8 487.2 931.8"/><rect class="b" x="163.3" y="813.8" width="320.8" height="57.5"/><polygon class="b" points="99.8 1089.1 157.3 1068 493.2 1068 553.7 1089.1 99.8 1089.1"/><rect class="b" x="148.2" y="1116.4" width="357.1" height="341.96"/><rect class="a" x="199.7" y="1167.8" width="257.2" height="81.71"/><circle class="c" cx="329.8" cy="1207.2" r="48.4"/><polygon class="b" points="547.7 1116.4 505.2 1158.9 505.3 1116.4 547.7 1116.4"/><polygon class="b" points="105.7 1116.4 148.2 1158.9 148.1 1116.4 105.7 1116.4"/><path class="a" d="M226.9,601.9c-.8-.7,1.3-9.1,6.1-9.1,18.1,0,12.8,10.2,39.3,27.3,3.4,2.2,9.3,4,12.1,3,4.7-1.5,4.3-10.3,6.4-18.9l9.1,7.8c-3.7,9.1-8.6,19.8-21.6,20.2-4,.1-8.7-3.9-18.1-12.1-14.1-12.3-20.1-22.7-27.2-21.2C229.7,599.6,227.5,602.5,226.9,601.9Z"/><path class="a" d="M332.8,623.1a19.3,19.3,0,0,1-2.2,4.3,25.7,25.7,0,0,1-5.9,6.4c-5.8,4.5-13.6,7.4-22.1,10.5-11.7,4.3-29.9,11-45.4,3-11.7-6-13.6-16-21.2-15.1s-8.4,10.7-21.2,15.1c-2.6.9-9.1,3.1-12.1,0s-2.2-6.8,0-9.1,8,.8,15.1,0c12.8-1.3,15.2-15.3,24.2-15.1s9,13.2,21.2,18.2,22-.9,33.3-6.1c4-1.8,12-5.5,18.3-10.2a30.8,30.8,0,0,0,6.1-5.8c2-2.6,3.2-5.3,2.8-8.2-.7-6.1-8.3-13-15.1-12.1-2.1.3-3.7,2.2-5.1,4.9-3.1-2.8-6.2-5.4-9.3-8a20,20,0,0,1,2.3-3c5.9-6.1,16.3-8.9,24.2-6C333.8,591.6,337.5,610.8,332.8,623.1Z"/><path class="a" d="M459.9,777.4c-19.2,1.4-12.1,0-24.2,3.1,4.7,9.6,15.8,25.8,28.4,28.5.9,2,1.5,3.7,1.9,4.8H438.7l-24.2-24.2c-17.5-4.9-20.3-8.1-33.3-15.2-25,2-63.2-6-90.7-9.1-3.1,12.1-2.1,33.3-3.1,48.5H266.2c-6-9.1-1-18.7-6-27.3-8.7-14.9-17.7-11.7-24.2-12.1-9.1,3-18.2,9.1-27.2,12.1-9.1,6.1-7,15,6,21.2v6.1H187.6V777.4c18.1-15.1,27.2-36.3,33.2-60.5,1.3-5-23.8,13.3-36.3-21.2,0-12.1,4.5-18.7,15.2-24.2s22-6.5,39.3-3c23.7,4.8,48.6,16.7,51.5,12.1,1.3-2.2-3.1-5-3.1-9.1s3.1-3.5,6.1-3c6,3,6,6.1,6,12.1s-3,5.5-6,6.1c-7.1,1.2-16.8-1.6-21.2-3.1-19.1-6.4-21.2-6-33.3-6-21.2-3-39.1-2.5-42.4,9.1-2.2,7.8,2.8,19.2,15.2,18.1a41.6,41.6,0,0,0,18.1-6c18.1-11.8,34.8-5.3,69.6-6.1s66.6-1.5,72.7-15.1c-9.5-9.5-29-27.3-47.5-43.8a25.7,25.7,0,0,0,5.9-6.4l2.2,1.8,42.4,39.3c5-5.9,13-29.3,27.2-48.4V595.9l9.1,6,14-14v-7.2h-6.1v3.1h-3v-3.1h-3v-3h3v-3h3v3h6.1v-6h-3v-3.1h3v-3h3v3h3.1v3.1h-3.1v6h6.1v-3h3v3h3v3h-3v3.1h-3v-3.1h-6.1v7.6l13.3,10.6,6-6.1v27.3l9.1,9.1c6.4,20.2,9.2,39.6,6,57.5-1.2,6.4-.9,6.3-3,15.1-3,6-3,9.1-6,15.1-3.1,4-9.1,8.1-12.1,12.1-1,4.1,1,8.1,0,12.1l12.1,18.2,18.1,3c6.1,7.1,6.1,8.1,12.1,15.1v15.2c.1.1,9.1,8.9,9.1,9.1s-3.2,5.6-3,6Z"/></svg>