<svg xmlns="http://www.w3.org/2000/svg" width="648" height="1459" viewBox="0 0 648 1459"><defs><style>.a{fill:#e5e5e5;}.a,.b,.c{stroke:#000;stroke-miterlimit:10;}.b,.c{fill:#afafaf;}.c{stroke-width:0.25px;}</style></defs><rect class="a" x="88.2" y="1276" width="74.2" height="181.84"/><rect class="a" x="487" y="1276" width="74.2" height="181.84"/><rect class="a" x="88.2" y="1159.8" width="473.1" height="116.23"/><rect class="a" x="281" y="1276.4" width="87.5" height="181.42"/><polygon class="a" points="88.2 1159.8 561.2 1159.8 569.4 1146.1 77 1146.1 88.2 1159.8"/><path class="b" d="M370.9,269.4c-6.8.5-4.3,0-8.6,1.1,1.7,3.4,5.6,9.2,10.1,10.1l.7,1.7h-9.7l-8.6-8.6c-6.2-1.7-7.2-2.8-11.8-5.4-8.9.7-22.5-2.1-32.3-3.2-1.1,4.3-.7,11.8-1.1,17.2h-7.5c-2.1-3.2-.4-6.6-2.1-9.7-3.1-5.3-6.3-4.1-8.6-4.3s-6.5,3.3-9.7,4.3-2.5,5.4,2.2,7.6v2.1h-9.7V269.4c6.4-5.4,9.7-12.9,11.8-21.5.4-1.8-8.5,4.7-12.9-7.5,0-4.3,1.6-6.7,5.4-8.6s7.8-2.3,14-1.1c8.4,1.7,17.2,5.9,18.2,4.3s-1.1-1.8-1.1-3.2,1.1-1.3,2.2-1.1,2.1,2.2,2.1,4.3-1,2-2.1,2.2-6-.6-7.5-1.1c-6.8-2.3-7.6-2.2-11.8-2.2-7.6-1-13.9-.8-15.1,3.3a5,5,0,0,0,5.4,6.4,15,15,0,0,0,6.4-2.1c6.5-4.2,12.4-1.9,24.7-2.2s23.7-.5,25.8-5.4c-6.4-6.4-25.8-23.6-31.1-27.9l-3.3-1.1h-1.6l-1,5.4-7-7,5.3-1.1v-2.1l-5.3-1.6,7.5-7.5,1.6,5.3H307l1-5.3,7,6.9-5.4,1.1v1.6a28.5,28.5,0,0,1,1.1,3.3c5,3.9,10,8.9,15.1,12.8l15,14c1.8-2.1,4.6-10.4,9.7-17.2v-8.6l3.2,2.2,5.4-5.4,5.4,4.3,2.1-2.1v9.6l3.2,3.2c2.3,7.2,3.3,14.1,2.2,20.5-.5,2.3-.3,2.2-1.1,5.3s-1.1,3.3-2.1,5.4-3.3,2.9-4.3,4.3.3,2.9,0,4.3l4.3,6.5,6.4,1c2.2,2.5,2.2,2.9,4.3,5.4v5.4l3.2,3.2c.1.1-1.1,2-1,2.2Z"/><polygon class="c" points="364.4 198 364.4 199.1 363.3 199.1 363.3 200.3 362.1 200.3 362.1 199.1 359.9 199.1 359.9 202.5 358.7 202.5 358.7 199.1 356.4 199.1 356.4 200.3 355.3 200.3 355.3 199.1 354.2 199.1 354.2 198 355.3 198 355.3 196.9 356.4 196.9 356.4 198 358.7 198 358.7 195.7 357.6 195.7 357.6 194.6 358.7 194.6 358.7 193.4 359.9 193.4 359.9 194.6 361 194.6 361 195.7 359.9 195.7 359.9 198 362.1 198 362.1 196.9 363.3 196.9 363.3 198 364.4 198"/><polygon class="a" points="261.1 429.8 389.8 429.8 402 1146.1 247.6 1146.1 261.1 429.8"/><rect class="a" x="270.5" y="356.5" width="108.1" height="73.34"/><rect class="a" x="267.5" y="348.8" width="114.1" height="7.72"/><path class="a" d="M374.2,309.7c-6.4,7.7-3.1,17.5-2.9,18.1h15v21H263.2v-21h15.4c.2-.6,3.5-10.4-2.9-18.1a18.9,18.9,0,0,0-12.1-6.4h-.4v-21H386.3v21A18.7,18.7,0,0,0,374.2,309.7Z"/></svg>