<svg xmlns="http://www.w3.org/2000/svg" width="814" height="1459" viewBox="0 0 814 1459"><defs><style>.a{fill:#e5e5e5;}.a,.b{stroke:#000;stroke-miterlimit:10;}.b{fill:#afafaf;}</style></defs><path class="a" d="M775.8,1458.7v.2H37.9v-.2l1.5-160.9H39v-32.7h4l10.1,5v-2.8h4l9.6,5.1v-2.8h4l9.6,5.1v-2.3h3.4l10.1,4.5v-2.8h3.4l9.6,5.1a18.9,18.9,0,0,1-.5-2.3h3.9l9.6,5.1v-2.3h2.8l10.2,4.6V1282h3.4l9,4.5v-2.2h4l35.5,16.3c71.2,13.4,124.1,23.3,163.4,30a43.5,43.5,0,0,1,7.7-5.5h0c13.4-7.7,34.8-13.2,59.3-15.6h.1a287,287,0,0,1,59.3.3h.1c22.9,2.5,45.1,7.9,63.1,17l1.9.9.8.5.6.3,4.7,2.7c9.6,5.9,17.6,13,23.3,21.4l38.4,4v-7.9h3.4c2.8,2.2,5.1,3.9,6.2,8.5v-8h3.4a18.3,18.3,0,0,1,5.7,6.3v-5.7H630c3.4,2.8,5.1,6.2,5.1,9.1,0,.3.7,0,1.1,0v-8.5h3.4c2.8,2.8,2.3,2.2,5.1,8.5v29.3h8.5q.6-143.7,1.1-287.6c10.9-12.7,20.6-29,26.6-56.5V979.2l5.1-2.9v13l5-5.6V967.3l4-1.7v13.6l6.8-7.4V955.4l4.5-2.2v13l5.6-6.2V944.7l4.6-2.8v13.5l6.7-7.3v-17l3.4-2.2.6,14.7,6.8-7.9V919.8l3.4-2.2v14.1l7.3-7.9V907.4l3.4-2.3.6,13.6,7.3-7.9-.6-16.4,4.3-2.2V906l7-7.1V881.4l4.6-2.2c1.1,200.5,4.5,367.8,4.5,532.2C775.8,1427.2,776.4,1443,775.8,1458.7Z"/><path class="b" d="M337.9,1376.4c-6.8-1.2-13-36.8,24.3-54.8,30.8-15,68.4-13,110.2-11.9,54.3,1.5,96.6,34.5,96.6,42.9-7.4.6-6.2.6-23.7.6,0,11.9,0,14.1-.6,26.6A750.6,750.6,0,0,0,337.9,1376.4Z"/></svg>