<svg xmlns="http://www.w3.org/2000/svg" width="384" height="1458" viewBox="0 0 384 1458"><defs><style>.a{fill:#e5e5e5;}.a,.b,.c{stroke:#000;stroke-miterlimit:10;}.b{fill:#afafaf;}.c{fill:#fff;}</style></defs><path class="a" d="M257.3,1458.7c-40.5,1.1-81-1.2-121.5,0v-56.5a59.6,59.6,0,0,1,6.8.2c21.5-142.4,22.3-287.7,22.3-289.4,1.7-135.2-2-310.7-3.4-386.8l10.3-6.8,11.9,6.8h17.1l12-8.5,10.3,8.5c-1.9,121.8,0,251,6.8,386.8,0,0,6.6,144.2,20.6,285.8h6.8Z"/><polygon class="b" points="187.2 726.2 199.1 726.2 194 719.4 194 705.7 206 712.5 200.8 697.1 214.5 688.6 197.4 688.6 192.3 671.5 187.2 688.6 170 688.6 182 698.9 178.6 712.5 190.6 705.7 190.6 719.4 187.2 726.2"/><path class="b" d="M194.9,965.3c-2.4-4.9-14.8-14.8-19.7-14.8,4.9-4.9,9.4-15.9,4.9-24.7,17.9,5.2,30.7,1.3,32.1,0-.3,7.5-.4,19.9,7.5,27.2C204.2,953.1,197.4,962.9,194.9,965.3Z"/><path class="c" d="M204.1,944.5l8.4,14.5-5.4,3.7-9.3-14.2h-1.7L185.9,962l-5.6-4.1,9.3-13.1-12.3-7.4h14.5l.5-.5L197,925l5,12.4,15.1.4Z"/><circle class="c" cx="196.7" cy="941.9" r="6"/><path class="b" d="M147.8,1397.1v-4.9h6.1l6.5-12,3.4-15.3,2-3.9v-3.2h4.1v-30.2l-2.1-9.5h-2.3l1.3-11.3h3.1v-9.1l-6.1-11.7,1.7-6.8-5.8-6.2,1-2.3s-2.4-2.3-2-2.6,1.3-1.3,1.7-1.3,1.3,2,1.7,2a21.2,21.2,0,0,0,2.7-1.7s.3-3.5.3-3.9,1.7-3.9,1.7-3.9l2.1.7-1.1,3.2.4,2.3,5.8-1.9-.4-3.3s4.1-8.4,4.1-8.8,6.1-10.7,6.1-10.7l8.5-11.7,2.4-3.2.7-4.6h-2.1l2.7-9.4-2.3,1,.6-2.9-2.3-1.7,3.4-.3a23.9,23.9,0,0,1,1-2.6,20.9,20.9,0,0,0,1.3,2.6h2.8l-2.4,2s1.7,2.2,1.3,2.2l-2.3-.6,2,9.7h-2.4l.4,4.6.6,29.5,11.2,37.4,2.8.3,1.7,1.3,1,2.6.3,2.9-1.3,1.7v1.3l1.7,1.3,3.7,1.3,3.1,3.2,3-1.3-.7-1.6,1.4.3.3.3s1.7.7,1.4,1l-4.1,2.9s4.4,5.2,4.1,5.6-.7,2.6-1,2.6a4.8,4.8,0,0,0-1.4.6l-2.4.3-2.7-1.3s-1,.7-1,1v2l1.4,2.2,2,5.2,1,38.4s1.4,0,1.4.6a18.8,18.8,0,0,0,.3,2.3l1.7,2.3,3.1,1.3,1,6.5,1,11.3,8.5.4v7.1H147.8Z"/></svg>