<?xml version="1.0" encoding="utf-8"?>
<!-- Generator: Adobe Illustrator 25.0.0, SVG Export Plug-In . SVG Version: 6.00 Build 0)  -->
<svg version="1.1" id="Layer_1" xmlns="http://www.w3.org/2000/svg" xmlns:xlink="http://www.w3.org/1999/xlink" x="0px" y="0px"
	 viewBox="0 0 825.1 766.2" style="enable-background:new 0 0 825.1 766.2;" xml:space="preserve">
<style type="text/css">
	.st0{fill:#EDCB48;stroke:#000000;stroke-miterlimit:10;}
	.st1{fill:#AFAFAF;stroke:#000000;stroke-miterlimit:10;}
</style>
<path class="st0" d="M816,682.1l-4.9-41.1l-16.5-6.6v-13.1l-32.8-9.9l-121.7-78.9l-9.8-9.9v-19.7l-3.3-6.6l6.6-9.8
	c0-13.2-6.6-19.7-6.6-19.7l-3.3-13.2h6.6l-3.3-13.1h3.3L627,424l3.3-3.3l-6.6-29.6l6.6-3.2l-6.6-16.5l-3.3-3.3l6.6-3.3v-39.4
	l-6.6-13.1h6.6l-6.6-16.5h3.3l-3.3-9.8h6.6l-6.6-16.5l3.3-3.3l-6.6-13.1h6.6l-6.6-26.3l9.9-3.3l-13.2-19.7l9.9-6.6l-9.9-19.7v-9.9
	l-3.3-9.9l3.3-6.5l-3.3-6.6l3.3-13.2h-6.5v-23l-3.3-3.3l9.8-39.4V46l-19.7-3.3l-32.9-9.9V16.4l6.6,9.9V13.1h-9.9V0h-9.8v13.1h-9.9
	V23h6.6v9.8l-26.3,9.9h-13.2V46h-9.8v26.3l9.8,36.1l-3.2,3.3v9.9l3.2,3.3l-13.1,3.3l-3.3,9.8l6.6,6.6l-6.6,26.3l-3.3,9.9L479,184
	l3.3,6.6l-9.8,13.2l9.8,6.5l-16.4,16.5l9.9,9.8l-23,19.8l6.5,6.5l-16.4,19.8l6.6,6.5l-19.8,16.5l13.2,3.3l-16.4,23l6.5,6.5
	L413.3,355l9.9,9.8l-26.3,16.5l9.8,9.8l-23,19.8l6.6,9.8l-174.2,75.6c-29.6,9.9-54.3,17-78.9,29.6c-26.3,13.2-46.1,29.6-69.1,46.1
	c-2.7,2-6.7,5-11.4,9.1c-6.8,5.8-12.7,11.7-21.4,20.4C-30.5,657.4,9,759.3,46.4,765.9h232.1c3.4-15.6-1.9-36-23-49.3v-13.2
	c-10.9-1-25.2,1.1-36.2,0c29.6-29.5,65.8-52.6,111.8-105.2c37.8-3,104,0.9,171.5,9.9c33.3,4.4,66.9,10,97.5,16.6
	c42.7,9.2,79.7,20.3,102.5,32.7c0,13.2,0.3,20,0,26.3h-16.4v82.2h138.9v-83.8H816z M114.2,703.4c-12.4,18.1-28.6,27.6-39.5,32.9
	c-33,16.3-62.5-59.2-16.4-101.9c38.1-35.4,92-69,121.6-72.3C162.2,610.3,138.6,657,114.2,703.4z"/>
<path class="st1" d="M650,765.7v0.2H508.6c-2-46.1-4-108.8-6-157.7c33.3,4.4,66.9,10,97.5,16.6c-2,25.5-4,57.9-6,82h29.6v16.4
	C643.2,731.5,649.9,749.3,650,765.7z"/>
<polygon class="st1" points="495.5,69.5 495.5,43.2 505.3,43.2 505.3,46.4 508.6,46.4 508.6,39.9 521.8,39.9 521.8,43.2 525.1,43.2 
	525.1,36.6 534.9,36.6 534.9,43.2 541.5,43.2 544.8,43.2 544.8,36.6 554.7,36.6 554.7,43.2 561.2,43.2 561.2,36.6 571.1,36.6 
	571.1,43.2 577.7,43.2 577.7,36.6 587.5,36.6 587.5,43.2 590.8,43.2 590.8,39.9 600.7,39.9 600.7,46.4 604,46.4 604,43.2 
	613.8,43.2 613.8,66.2 "/>
<path class="st1" d="M610.5,135.2c0.7,7.8-9.8,13.1-13.1,19.7c-3.3,13.2-5.5,26.8-9.9,62.5c-12.6,6.5-24.4,9.3-36.1,9
	s-23.6-2.5-36.2-9c-4.3-35.7-6.6-49.3-9.9-62.5c-3.2-6.6-13.8-11.9-13.1-19.7c0.5-6.2,6.6-13.2,13.1-13.2s8.6,4.9,13.2,9.9
	c21.8-3.2,43.9-3.2,65.7,0c4.7-5,7.2-9.9,13.2-9.9S610,129,610.5,135.2z"/>
</svg>
