<?xml version="1.0" encoding="utf-8"?>
<!-- Generator: Adobe Illustrator 25.0.0, SVG Export Plug-In . SVG Version: 6.00 Build 0)  -->
<svg version="1.1" id="Layer_1" xmlns="http://www.w3.org/2000/svg" xmlns:xlink="http://www.w3.org/1999/xlink" x="0px" y="0px"
	 viewBox="0 0 85 60" style="enable-background:new 0 0 85 60;" xml:space="preserve">
<style type="text/css">
	.st0{fill:#FFFFFF;}
	.st1{fill:#EDCB48;}
</style>
<path class="st0" d="M5.1,54c0,0-0.1,0-0.1,0l-0.9,0C1.8,54,0,52.2,0,49.9V5.2c0-2.3,1.8-4.1,4.1-4.1h47c2.3,0,4.1,2,4.1,4.2v44.6
	c0,2.3-1.8,4.1-4.1,4.1H30c-1.1,0-3.2-0.7-3.7-3.1c-1.1-4-4.8-6.8-8.9-6.8c-4.3,0-8.1,3-9.1,7.2C8,53.2,6.5,54,5.1,54z M4.1,4.2
	C3.5,4.2,3,4.6,3,5.2v44.7C3,50.5,3.5,51,4.1,51h1c0,0,0.1-0.3,0.1-0.3c1.3-5.6,6.3-9.6,12-9.6c5.6,0,10.5,3.8,11.9,9.1
	c0.2,0.7,0.7,0.8,0.8,0.8h21.1c0.6,0,1.1-0.5,1.1-1.1V5.3c0-0.6-0.5-1.1-1.1-1.1H4.1z M84.9,35.8c0,0-0.1-2.1-0.3-3.1
	c-0.2-0.9-1.1-2.6-1.1-2.6l-7.3-13.6c-1-1.5-3.1-2.7-4.6-2.7H60.8c-1.4,0-2.6,1.2-2.6,2.6v33.5c0,1.4,1.2,2.6,2.6,2.6h0.6
	c0,0,0.9-0.1,1.3-1.3c1-3.9,4.5-6.9,8.7-6.9c4.1,0,7.6,2.8,8.7,6.6c0.4,1.6,2.2,1.6,2.2,1.6c1.4,0,2.6-1.2,2.6-2.6L84.9,35.8z
	 M78.3,32.3h-13c-1.1,0-2-0.9-2-2V20.1c0-1.1,0.9-2,2-2h4.4c2.5,0,4.1,2,4.6,3l5.1,9.4C79.9,31.5,79.4,32.3,78.3,32.3z"/>
<path class="st1" d="M4.1,4.2C3.5,4.2,3,4.6,3,5.2v44.7C3,50.5,3.5,51,4.1,51h1c0,0,0.1-0.3,0.1-0.3c1.3-5.6,6.3-9.6,12-9.6
	c5.6,0,10.5,3.8,11.9,9.1c0.2,0.7,0.7,0.8,0.8,0.8h21.1c0.6,0,1.1-0.5,1.1-1.1V5.3c0-0.6-0.5-1.1-1.1-1.1H4.1z"/>
</svg>
