<svg id="a" xmlns="http://www.w3.org/2000/svg" viewBox="0 0 720 720">
  <path d="M400.8,552.8a35.9,35.9,0,0,0-5.6-6.1l-75.3-75.3a.37.37,0,0,1,.1-.3,39.68,39.68,0,0,0,.5-9.2c-1.8-18.6-11.6-34.9-29.6-48.8a64.62,64.62,0,0,0-18.8-10,44.31,44.31,0,0,0-22.4-2.2h-.2l-78-78a22.53,22.53,0,0,0-7.4-5c-4.4-1.7-9.1-1.2-8.5,5,.7,6.7,1.2,13.4,1.7,20,0,.7.1,1.3.1,2-15.9-11.6-36.7-11.4-52,1-3.5,2.8-4.8,3-6.7-1.5a43.32,43.32,0,0,0-54.1-24.6c-4.3,1.4-6,1.9-6.2.3q-.75,7.35-1.2,14.4v.3a.37.37,0,0,0,.1-.3c1.3-2.7,3.5-4.7,7.7-5.8a42.32,42.32,0,0,1,35.2,6.2A44.67,44.67,0,0,1,94,350.7c1.7,3.1,4.1,17.5,6.5,19.4a29.41,29.41,0,0,0,1.3-13.8,7.7,7.7,0,0,1,.1-4,6.52,6.52,0,0,1,3.4-2.9,44.62,44.62,0,0,1,24.6-4.5,43.34,43.34,0,0,1,25,10.9c7.9,7.1,3.7,24.2,3.4,33.7-.7,20.7-2.6,42.5-7.4,62.7-5.2,22-15.3,37.6-30.7,53.6-9.4,9.8-31.7,34.4-32.3,37.6l-.1-.1-.1,1.4c24.3,36.6,55.8,65.9,90.9,88a21.25,21.25,0,0,0,8-4c10-10,20.5-19.5,30.9-29,9.4-8.6,18.2-20.8,30.8-24.1,28.1-7.2,56.8-11.9,85.8-12.9,11.4-.4,24.7-3.8,33,5.9,6.1,7.1,8.3,16.5,8,25.7s-1.3,26.1-15,23.7a17.9,17.9,0,0,0-4-.2c-6,.3-4,3.2-.6,3.6a43.56,43.56,0,0,1,36.3,51.9c-.6,3-1.8,7.5-4.7,9.2a7.51,7.51,0,0,1-1.8.7c5.2-.5,10.4-1,15.5-1.8-3,.2-2.7-1-1.2-5.7,7.4-22.6-2.9-45.8-25-55-5-2.1-3.1-3.8-.9-6.5a42.18,42.18,0,0,0,1.8-50.7c7.6.5,15.3,1.2,23,1.8,2,.2,3.7-.1,4.5-1.7C404.6,560.5,403.4,556.8,400.8,552.8Z" fill="#001c33"/>
  <path d="M653.6,228.4a331.47,331.47,0,0,1,30.6,141.5C683,553,533.7,700.4,350.6,699.2S20.1,548.7,21.3,365.6,171.9,35.1,355,36.3A329.24,329.24,0,0,1,493.2,67.4" fill="none" stroke="#001c33" stroke-linecap="round" stroke-miterlimit="10" stroke-width="30"/>
  <path d="M676.5,111.5c-4.5-4.3-62-62-66.7-66.7-2.2-2.3-4.2-3.4-7.5-1.9-19.6,9.2-71.8,43.9-79.2,50.5a.1.1,0,0,1-.1.1c-35.2,31-65.4,66.6-91.1,105.8-13.7,20.9-25.4,42.8-33.1,66.7-1.4,4.2-.6,7.1,2.5,10.2q22.35,21.9,44.3,44.3c2.9,2.9,5.5,3.3,9.2,2.2,27.9-8.3,53.5-23.9,77.5-40.1,47.4-32.1,90.3-72.8,122-120.6A340.08,340.08,0,0,0,678,120C679.6,116.5,679.4,114.3,676.5,111.5Zm-43.6,45.1c-7.2,12.6-19.5,22.3-35.4,24.6a51.21,51.21,0,0,1-43.2-14.5c-34-34-2.7-93.5,44.6-85.1A50.66,50.66,0,0,1,626,95.8C643,112.7,643.6,137.9,632.9,156.6Z" fill="#001c33"/>
  <circle cx="590.1" cy="131.2" r="44" fill="#001c33"/>
  <path d="M429.9,186c-1.2,2.1-31.9,53.4-40.1,80.7-.7,2.3-1.5,3.7-4.2,3.6-4.3-.2-91.5-5.3-92.5-5.9l78.3-78.3c1.7-1.7,3.3-3.7,6.2-3.5C391.5,183.5,426.5,185.8,429.9,186Z" fill="#001c33"/>
  <path d="M536.4,348.8c-26,26-78.9,78.6-79.8,79.1-1.6-6.9-5.2-86.5-5.4-90.5-.2-3.4.6-5,4.1-6.1,26.2-7.9,77.4-38.6,79.9-40.2.2,3.9,2.6,38.7,3.5,52.1A6.69,6.69,0,0,1,536.4,348.8Z" fill="#001c33"/>
  <path d="M712.4,13.6c-3.2,22.6-22.8,82.5-27.3,90.5-2.4,5.7-2.5,5.7-7,1.2-7.4-7.5-54.5-54.6-62.6-62.4-3-2.9-3.5-4.2,1-6.2,8.2-5.1,69-24.7,91.6-27.7C712.7,8,713.1,9.6,712.4,13.6Z" fill="#001c33"/>
  <path d="M441.1,334.7c-3,6.9-8.7,21.6-8.8,21.9-1.7,4.6-3.5,5.4-7.1,1.7-10.5-10.7-52.3-52.2-62.7-62.5-2.7-2.6-3.5-4.4.9-6,1-.4,17.1-6.8,24-9.7,2.9-1.2,4.9-.9,7.2,1.4,15,15.1,30,30.2,45.1,45.1C442.3,329.1,442.6,331.4,441.1,334.7Z" fill="#001c33"/>
  <line x1="248.7" y1="339.4" x2="250.9" y2="286.3" fill="none" stroke="#001c33" stroke-linecap="round" stroke-miterlimit="10" stroke-width="12"/>
  <line x1="293" y1="359.6" x2="316.4" y2="311.8" fill="none" stroke="#001c33" stroke-linecap="round" stroke-miterlimit="10" stroke-width="12"/>
  <line x1="382.7" y1="473.6" x2="435.8" y2="474.2" fill="none" stroke="#001c33" stroke-linecap="round" stroke-miterlimit="10" stroke-width="12"/>
  <line x1="363" y1="428.6" x2="412.4" y2="408.9" fill="none" stroke="#001c33" stroke-linecap="round" stroke-miterlimit="10" stroke-width="12"/>
  <polygon points="306.2 415.1 380.4 324.4 398 342.2 306.2 415.1" fill="#001c33"/>
  <polygon points="300.7 386.3 365.7 309.9 375.7 319.7 300.7 386.3" fill="#001c33"/>
  <polygon points="334.6 421.3 401.5 345.5 411.3 355.5 334.6 421.3" fill="#001c33"/>
</svg>
