<?xml version="1.0" encoding="utf-8"?>
<!-- Generator: Adobe Illustrator 27.3.1, SVG Export Plug-In . SVG Version: 6.00 Build 0)  -->
<svg version="1.1" id="a" xmlns="http://www.w3.org/2000/svg" xmlns:xlink="http://www.w3.org/1999/xlink" x="0px" y="0px"
	 viewBox="0 0 720 720" style="enable-background:new 0 0 720 720;" xml:space="preserve">
<style type="text/css">
	.st0{fill:#001C33;}
	
		.st1{display:none;fill:none;stroke:#001C33;stroke-width:30;stroke-linecap:round;stroke-miterlimit:10;enable-background:new    ;}
	.st2{fill:none;stroke:#001C33;stroke-width:12;stroke-linecap:round;stroke-miterlimit:10;}
</style>
<path class="st0" d="M281.2,513.6c1.5-10.2,10.1-25.8-17.5-51.5c-24.7-23-30.5-23.3-52.7-19c-0.1,0-0.1,0-0.2,0
	c-65.2-65.3-91.8-110.2-93.6-77.9c-1.3,22.1,3.1,44.3,2.4,66.5c-0.7,20.7-2.6,42.5-7.4,62.7c-5.2,22-15.3,37.6-30.7,53.6
	c-9.4,9.8-31.7,34.4-32.3,37.6c-11.4,15.9,74.3,93.4,90.8,89.3c3-0.6,6.8-2.9,8-4c10-10,20.5-19.5,30.9-29
	c9.4-8.6,18.2-20.8,30.8-24.1c28.1-7.2,56.2-9.3,85.2-10.7c42.3-2.1,65.2,3.8,69.5-1.2C376.6,591.7,339.4,575.3,281.2,513.6z"/>
<path class="st1" d="M653.6,228.2c19.9,43,30.9,91,30.6,141.5C683,552.8,533.7,700.3,350.6,699.1C167.5,697.9,20.1,548.5,21.3,365.4
	C22.5,182.4,171.9,34.9,355,36.1c49.4,0.3,96.2,11.4,138.2,31.1"/>
<path class="st0" d="M637.8,153.7c-4.5-4.3-62-62-66.7-66.7c-2.2-2.3-4.2-3.4-7.5-1.9c-19.6,9.2-71.8,43.9-79.2,50.5
	c0,0.1-0.1,0.1-0.1,0.1c-35.2,31-65.4,66.6-91.1,105.8c-13.7,20.9-25.4,42.8-33.1,66.7c-1.4,4.2-0.6,7.1,2.5,10.2
	c14.9,14.6,29.7,29.4,44.3,44.3c2.9,2.9,5.5,3.3,9.2,2.2c27.9-8.3,53.5-23.9,77.5-40.1c47.4-32.1,90.3-72.8,122-120.6
	c8.9-13.4,16.8-27.5,23.7-42C640.9,158.7,640.7,156.5,637.8,153.7z M594.2,198.8c-7.2,12.6-19.5,22.3-35.4,24.6
	c-15.8,2.3-32-3.3-43.2-14.5c-34-34-2.7-93.5,44.6-85.1c10.2,1.8,19.8,6.8,27.1,14.2C604.3,154.9,604.9,180,594.2,198.8z"/>
<circle class="st0" cx="551.4" cy="173.4" r="44"/>
<path class="st0" d="M391.2,228.2c-1.2,2.1-31.9,53.4-40.1,80.7c-0.7,2.3-1.5,3.7-4.2,3.6c-4.3-0.2-91.5-5.3-92.5-5.9
	c0,0,67.7-67.7,78.3-78.3c1.7-1.7,3.3-3.7,6.2-3.5C352.8,225.7,387.8,228,391.2,228.2z"/>
<path class="st0" d="M497.7,391c-26,26-78.9,78.6-79.8,79.1c-1.6-6.9-5.2-86.5-5.4-90.5c-0.2-3.4,0.6-5,4.1-6.1
	c26.2-7.9,77.4-38.6,79.9-40.2c0.2,3.9,2.6,38.7,3.5,52.1C500.2,387.7,499.3,389.4,497.7,391z"/>
<path class="st0" d="M673.7,55.8c-3.2,22.6-22.8,82.5-27.3,90.5c-2.4,5.7-2.5,5.7-7,1.2c-7.4-7.5-54.5-54.6-62.6-62.4
	c-3-2.9-3.5-4.2,1-6.2c8.2-5.1,69-24.7,91.6-27.7C674,50.2,674.4,51.8,673.7,55.8z"/>
<path class="st0" d="M402.4,376.9c-3,6.9-8.7,21.6-8.8,21.9c-1.7,4.6-3.5,5.4-7.1,1.7c-10.5-10.7-52.3-52.2-62.7-62.5
	c-2.7-2.6-3.5-4.4,0.9-6c1-0.4,17.1-6.8,24-9.7c2.9-1.2,4.9-0.9,7.2,1.4c15,15.1,30,30.2,45.1,45.1
	C403.6,371.3,403.9,373.6,402.4,376.9z"/>
<line class="st2" x1="210" y1="381.6" x2="212.2" y2="328.5"/>
<line class="st2" x1="254.3" y1="401.7" x2="277.7" y2="354"/>
<line class="st2" x1="344" y1="515.8" x2="397.1" y2="516.4"/>
<line class="st2" x1="324.3" y1="470.7" x2="373.7" y2="451.1"/>
<g>
	<polygon class="st0" points="267.5,457.2 341.7,366.6 359.3,384.4 267.5,457.2 	"/>
</g>
<g>
	<polygon class="st0" points="262,428.5 327,352.1 337,361.9 262,428.5 	"/>
</g>
<g>
	<polygon class="st0" points="295.9,463.4 362.8,387.7 372.6,397.7 295.9,463.4 	"/>
</g>
</svg>
