<?xml version="1.0" encoding="utf-8"?>
<!-- Generator: Adobe Illustrator 27.3.1, SVG Export Plug-In . SVG Version: 6.00 Build 0)  -->
<svg version="1.1" id="a" xmlns="http://www.w3.org/2000/svg" xmlns:xlink="http://www.w3.org/1999/xlink" x="0px" y="0px"
	 viewBox="0 0 720 720" style="enable-background:new 0 0 720 720;" xml:space="preserve">
<style type="text/css">
	.st0{fill:#001C33;}
	.st1{fill:none;stroke:#001C33;stroke-width:30;stroke-linecap:round;stroke-miterlimit:10;enable-background:new    ;}
	.st2{fill:none;stroke:#001C33;stroke-width:12;stroke-linecap:round;stroke-miterlimit:10;}
</style>
<path class="st0" d="M400.8,552.8c-1.5-2.3-3.6-4.2-5.6-6.1l-75.3-75.3c0-0.1,0-0.2,0.1-0.3c0.4-3,0.8-5.9,0.5-9.2
	c-1.8-18.6-11.6-34.9-29.6-48.8c-6-4.6-12.3-7.8-18.8-10c-8.1-2.8-15.5-3.4-22.4-2.2c-0.1,0-0.1,0-0.2,0l-78-78
	c-2.2-2.2-4.7-3.9-7.4-5c-4.4-1.7-9.1-1.2-8.5,5c0.7,6.7,1.2,13.4,1.7,20c0,0.7,0.1,1.3,0.1,2c-15.9-11.6-36.7-11.4-52,1
	c-3.5,2.8-4.8,3-6.7-1.5c-9-21.4-32.2-31.9-54.1-24.6c-4.3,1.4-6,1.9-6.2,0.3c-0.5,4.9-0.9,9.7-1.2,14.4c0,0.1,0,0.2,0,0.3
	c0.1-0.1,0.1-0.2,0.1-0.3c1.3-2.7,3.5-4.7,7.7-5.8c11.9-3.3,25.1-0.9,35.2,6.2c5.8,4,10.5,9.6,13.8,15.8c1.7,3.1,4.1,17.5,6.5,19.4
	c1.6-4.4,1.9-9.2,1.3-13.8c-0.2-1.4-0.4-2.8,0.1-4c0.6-1.4,2-2.2,3.4-2.9c7.6-3.8,16.2-5.4,24.6-4.5c9.1,0.9,18.2,4.6,25,10.9
	c7.9,7.1,3.7,24.2,3.4,33.7c-0.7,20.7-2.6,42.5-7.4,62.7c-5.2,22-15.3,37.6-30.7,53.6c-9.4,9.8-31.7,34.4-32.3,37.6
	c0,0-0.1-0.1-0.1-0.1l-0.1,1.4c24.3,36.6,55.8,65.9,90.9,88c3-0.6,6.8-2.9,8-4c10-10,20.5-19.5,30.9-29c9.4-8.6,18.2-20.8,30.8-24.1
	c28.1-7.2,56.8-11.9,85.8-12.9c11.4-0.4,24.7-3.8,33,5.9c6.1,7.1,8.3,16.5,8,25.7c-0.3,9.2-1.3,26.1-15,23.7c-1.3-0.2-2.7-0.3-4-0.2
	c-6,0.3-4,3.2-0.6,3.6c11.2,1.5,21.8,7.8,28.5,16.9c5.8,7.6,8.7,16.9,8.7,26.2c0,3-0.3,5.9-0.9,8.8c-0.6,3-1.8,7.5-4.7,9.2
	c-0.5,0.3-1.1,0.5-1.8,0.7c5.2-0.5,10.4-1,15.5-1.8c-3,0.2-2.7-1-1.2-5.7c7.4-22.6-2.9-45.8-25-55c-5-2.1-3.1-3.8-0.9-6.5
	c11.9-15,12.5-35,1.8-50.7c7.6,0.5,15.3,1.2,23,1.8c2,0.2,3.7-0.1,4.5-1.7C404.6,560.5,403.4,556.8,400.8,552.8z"/>
<path class="st1" d="M653.6,228.4c19.9,43,30.9,91,30.6,141.5C683,553,533.7,700.4,350.6,699.2C167.5,698,20.1,548.7,21.3,365.6
	C22.5,182.5,171.9,35.1,355,36.3c49.4,0.3,96.2,11.4,138.2,31.1"/>
<path class="st0" d="M676.5,111.5c-4.5-4.3-62-62-66.7-66.7c-2.2-2.3-4.2-3.4-7.5-1.9c-19.6,9.2-71.8,43.9-79.2,50.5
	c0,0.1-0.1,0.1-0.1,0.1c-35.2,31-65.4,66.6-91.1,105.8c-13.7,20.9-25.4,42.8-33.1,66.7c-1.4,4.2-0.6,7.1,2.5,10.2
	c14.9,14.6,29.7,29.4,44.3,44.3c2.9,2.9,5.5,3.3,9.2,2.2c27.9-8.3,53.5-23.9,77.5-40.1c47.4-32.1,90.3-72.8,122-120.6
	c8.9-13.4,16.8-27.5,23.7-42C679.6,116.5,679.4,114.3,676.5,111.5z M632.9,156.6c-7.2,12.6-19.5,22.3-35.4,24.6
	c-15.8,2.3-32-3.3-43.2-14.5c-34-34-2.7-93.5,44.6-85.1c10.2,1.8,19.8,6.8,27.1,14.2C643,112.7,643.6,137.9,632.9,156.6z"/>
<circle class="st0" cx="590.1" cy="131.2" r="44"/>
<path class="st0" d="M429.9,186c-1.2,2.1-31.9,53.4-40.1,80.7c-0.7,2.3-1.5,3.7-4.2,3.6c-4.3-0.2-91.5-5.3-92.5-5.9
	c0,0,67.7-67.7,78.3-78.3c1.7-1.7,3.3-3.7,6.2-3.5C391.5,183.5,426.5,185.8,429.9,186z"/>
<path class="st0" d="M536.4,348.8c-26,26-78.9,78.6-79.8,79.1c-1.6-6.9-5.2-86.5-5.4-90.5c-0.2-3.4,0.6-5,4.1-6.1
	c26.2-7.9,77.4-38.6,79.9-40.2c0.2,3.9,2.6,38.7,3.5,52.1C538.9,345.5,538,347.2,536.4,348.8z"/>
<path class="st0" d="M712.4,13.6c-3.2,22.6-22.8,82.5-27.3,90.5c-2.4,5.7-2.5,5.7-7,1.2c-7.4-7.5-54.5-54.6-62.6-62.4
	c-3-2.9-3.5-4.2,1-6.2c8.2-5.1,69-24.7,91.6-27.7C712.7,8,713.1,9.6,712.4,13.6z"/>
<path class="st0" d="M441.1,334.7c-3,6.9-8.7,21.6-8.8,21.9c-1.7,4.6-3.5,5.4-7.1,1.7c-10.5-10.7-52.3-52.2-62.7-62.5
	c-2.7-2.6-3.5-4.4,0.9-6c1-0.4,17.1-6.8,24-9.7c2.9-1.2,4.9-0.9,7.2,1.4c15,15.1,30,30.2,45.1,45.1
	C442.3,329.1,442.6,331.4,441.1,334.7z"/>
<line class="st2" x1="248.7" y1="339.4" x2="250.9" y2="286.3"/>
<line class="st2" x1="293" y1="359.6" x2="316.4" y2="311.8"/>
<line class="st2" x1="382.7" y1="473.6" x2="435.8" y2="474.2"/>
<line class="st2" x1="363" y1="428.6" x2="412.4" y2="408.9"/>
<g>
	<polygon class="st0" points="306.2,415.1 380.4,324.4 398,342.2 306.2,415.1 	"/>
</g>
<g>
	<polygon class="st0" points="300.7,386.3 365.7,309.9 375.7,319.7 300.7,386.3 	"/>
</g>
<g>
	<polygon class="st0" points="334.6,421.3 401.5,345.5 411.3,355.5 334.6,421.3 	"/>
</g>
</svg>
