<?xml version="1.0" encoding="utf-8"?>
<!-- Generator: Adobe Illustrator 25.0.0, SVG Export Plug-In . SVG Version: 6.00 Build 0)  -->
<svg version="1.1" baseProfile="tiny" id="Layer_1" xmlns="http://www.w3.org/2000/svg" xmlns:xlink="http://www.w3.org/1999/xlink"
	 x="0px" y="0px" viewBox="0 0 1200 600" overflow="visible" xml:space="preserve">
<path fill="#DA121A" d="M0,0h1200v600H0V0z"/>
<path fill="#FCDD09" d="M0,0h1200v400H0V0z"/>
<path fill="#078930" d="M0,0h1200v200H0V0z"/>
<g transform="matrix(1.66667 0 0 1.66667 600 300)">
	<circle fill="#0F47AF" cx="0" cy="0" r="120"/>
	<g id="a">
		<path fill="#FCDD09" d="M0-96l-4.2,12.9l17.3,53.4H-10l-2.6,8h74.2l11-8h-51L0-96z"/>
		<path stroke="#FCDD09" stroke-width="6.6667" stroke-miterlimit="6.6667" d="M25.9-35.6l30.6-42.1"/>
	</g>
	<g transform="rotate(72)">
		<g id="a_1_">
			<path fill="#FCDD09" d="M91.3-29.7l-13.6,0l-45.4,33l-7.1-22l-8.4,0l22.9,70.5l11,8L34.9,11.3L91.3-29.7z"/>
			<path stroke="#FCDD09" stroke-width="6.6667" stroke-miterlimit="6.6667" d="M41.8,13.6l49.5,16.1"/>
		</g>
	</g>
	<g transform="rotate(144)">
		<g id="a_2_">
			<path fill="#FCDD09" d="M56.4,77.7l-4.2-12.9l-45.4-33l18.7-13.6l-2.6-8l-60,43.6l-4.2,12.9L0,36.7L56.4,77.7z"/>
			<path stroke="#FCDD09" stroke-width="6.6667" stroke-miterlimit="6.6667" d="M0,44l0,52"/>
		</g>
	</g>
	<g transform="rotate(-144)">
		<g id="a_3_">
			<path fill="#FCDD09" d="M-56.4,77.7l11-8l17.3-53.4l18.7,13.6l6.8-4.9l-60-43.6l-13.6,0l41.3,30L-56.4,77.7z"/>
			<path stroke="#FCDD09" stroke-width="6.6667" stroke-miterlimit="6.6667" d="M-41.8,13.6l-49.5,16.1"/>
		</g>
	</g>
	<g transform="rotate(-72)">
		<g id="a_4_">
			<path fill="#FCDD09" d="M-91.3-29.7l11,8l56.1,0l-7.1,22l6.8,4.9l22.9-70.5l-4.2-12.9l-15.8,48.5L-91.3-29.7z"/>
			<path stroke="#FCDD09" stroke-width="6.6667" stroke-miterlimit="6.6667" d="M-25.9-35.6l-30.6-42.1"/>
		</g>
	</g>
</g>
</svg>
