<?xml version="1.0" encoding="utf-8"?>
<!-- Generator: Adobe Illustrator 25.0.0, SVG Export Plug-In . SVG Version: 6.00 Build 0)  -->
<svg version="1.1" id="Layer_1" xmlns="http://www.w3.org/2000/svg" xmlns:xlink="http://www.w3.org/1999/xlink" x="0px" y="0px"
	 viewBox="0 0 100 100" style="enable-background:new 0 0 100 100;" xml:space="preserve">
<style type="text/css">
	.st0{fill:#646464;}
</style>
<g>
	<path class="st0" d="M62.93,54.01H37.07c-9.04,0-16.4,7.36-16.4,16.4v2.35c0,0.44,0.36,0.8,0.8,0.8s0.8-0.36,0.8-0.8v-2.35
		c0-8.17,6.64-14.81,14.81-14.81h25.86c8.17,0,14.81,6.64,14.81,14.81v2.35c0,0.44,0.36,0.8,0.8,0.8s0.8-0.36,0.8-0.8v-2.35
		C79.33,61.37,71.97,54.01,62.93,54.01z"/>
	<path class="st0" d="M50,52.6c7.8,0,14.14-6.34,14.14-14.14S57.8,24.32,50,24.32s-14.14,6.34-14.14,14.14S42.2,52.6,50,52.6z
		 M50,25.91c6.92,0,12.55,5.63,12.55,12.55S56.92,51.01,50,51.01s-12.55-5.63-12.55-12.55S43.08,25.91,50,25.91z"/>
</g>
</svg>
