<?xml version="1.0" encoding="UTF-8"?><svg id="a" xmlns="http://www.w3.org/2000/svg" viewBox="0 0 200 200"><defs><style>.b{fill:#fff;}.c{fill:#2c63fe;}</style></defs><rect class="c" width="200" height="200" rx="30" ry="30"/><path class="b" d="m148,59.5c0,5.5,0,11,0,16.5-.2,12.2-4.3,22.8-12.7,31.7-6.6,7-14.7,11.3-24.2,13.1-.2,0-.3,0-.5,0-1.7.3-2.6-.5-2.6-2.3,0-8.2,0-16.4,0-24.5,0-1.3.4-1.9,1.6-2.4,6.8-2.9,10.9-9.5,10.5-16.8-.4-7.2-5.2-13.7-12.2-15.6-9.9-2.7-19,3.2-21,12.8-1.8,8.4,2.1,15.7,9.7,19.4.9.4,1.3,1,1.3,2,0,8.6,0,17.2,0,25.8,0,1.6-.3,1.8-2.4,1.4-6.3-1.2-12.2-3.5-17.4-7.2-10.6-7.5-16.9-17.8-19-30.5-3.2-19.3,6.3-38.9,23.7-47.9,12.7-6.6,25.8-6.8,39-1,1.3.6,2.6,1.2,3.8,2,1.1.7,1.6.5,2.3-.6,2.8-4.8,8.2-6.6,13.3-4.7,4.1,1.5,6.8,5.7,6.8,10.4,0,6,0,12.1,0,18.2h0Z"/><path class="b" d="m73.7,137.8c1.8-3.3,4.4-5.6,8-6.4,8.4-1.9,14.8,2,16.6,11.3.4,2.2.5,4.4.6,6.7.1,4.9,0,9.8,0,14.7,0,3.4-2.3,5.7-5.5,5.7-3.2,0-5.3-2.3-5.3-5.8,0-5.1,0-10.2,0-15.4,0-2.3-.3-4.6-2-6.4-2.9-3.1-8.5-2.4-10.8,1.3-1.2,1.9-1.8,3.9-1.8,6.2,0,4.9,0,9.7,0,14.6,0,3.3-2.1,5.5-5.1,5.5-3.2,0-5.4-2.1-5.4-5.5,0-13.9,0-27.7,0-41.6,0-3.3,2.4-5.7,5.4-5.6,3.1,0,5.2,2.4,5.2,5.7,0,4.4,0,8.8,0,13.2,0,.5-.2,1.1.2,1.7h0Z"/><path class="b" d="m47.6,135.6c1.5-3.6,3.8-5.1,6.5-4.5,2.6.6,4.3,2.7,4.3,5.6,0,8.2,0,16.5,0,24.7s0,2.2,0,3.3c-.2,2.6-1.7,4.5-4,5-2.7.6-4.9-.4-6.2-2.8-.4-.7-.5-1.5-1.5-.5-3.7,3.8-8.3,4.3-13.2,2.9-6.4-1.8-10.5-6.2-12.1-12.6-1.8-7-1.2-13.7,3.5-19.5,3.9-4.8,9.1-7,15.3-6.2,3,.4,5.3,2.1,7.3,4.6h0Z"/><path class="c" d="m48.2,150.1c0-.5,0-1.1,0-1.7-.4-4-2.8-7-6.3-8-2.8-.8-6.4.5-8.3,2.9-2.9,3.7-2.9,10.3,0,13.9,3.5,4.4,10,4.2,13-.6,1.3-2,1.7-4.2,1.7-6.7Z"/><path class="b" d="m154.3,137.4c1.7-2.4,3.4-4.2,5.8-5.3,6.5-2.7,15-1.1,17.9,7.8.9,2.7,1.2,5.5,1.3,8.4.1,5.1,0,10.2,0,15.4,0,3.4-1.9,5.7-4.6,6-3.6.4-6.1-1.9-6.2-5.7,0-4.9,0-9.8,0-14.7,0-.9,0-1.9-.1-2.8-.4-3.2-2.3-5.5-4.9-6.1-3-.7-6,.5-7.8,3.2-1.1,1.6-1.6,3.4-1.6,5.4.1,5,0,10,0,15,0,2.8-1.4,4.7-3.6,5.4-2.1.7-4.3.1-5.8-1.6-1-1.1-1.3-2.5-1.3-3.9,0-9,0-18,0-27,0-3.3,2-5.7,4.9-5.9,2.9-.2,5.2,1.7,5.8,5,0,.3.1.6.3,1.4h0Z"/><path class="b" d="m128.2,163.2c-4.1,6.6-10.9,7.7-16,5.9-4.9-1.7-7.1-5.6-8.3-10.3-.6-2.2-.7-4.4-.7-6.6,0-5.3,0-10.7,0-16,0-2.4,1.9-4.6,4.1-5.1,2.4-.5,4.8.6,5.9,2.8.5.9.5,1.9.5,2.9,0,4.9,0,9.7,0,14.6,0,1.3.2,2.6.5,3.9.6,2.7,2,4.6,4.8,5.2,3,.6,5.5-.3,7.4-2.7,1.3-1.7,2-3.6,2-5.8,0-5.1,0-10.2,0-15.4,0-4.1,3.8-6.6,7.5-5.1,2.2.9,3.2,2.8,3.2,5.1,0,9.1,0,18.3,0,27.5,0,2.1-.7,4-2.8,5.1-3.1,1.6-6.6.3-7.6-3.1-.3-.8-.3-1.7-.5-2.8h0Z"/></svg>