<?xml version="1.0" encoding="UTF-8"?><svg id="a" xmlns="http://www.w3.org/2000/svg" viewBox="0 0 200 200"><defs><style>.c{fill:#fff;}.d{fill:#f9ac00;}</style></defs><rect class="d" width="200" height="200" rx="30" ry="30"/><g id="b"><path class="c" d="m99.99,120.02l-19.41-15.16-55.51,42.43c2.01,1.7,4.71,2.71,7.74,2.71h134.38c2.98,0,5.7-1.02,7.71-2.71l-55.46-42.43-19.45,15.16Z"/><path class="c" d="m174.92,52.72c-2-1.7-4.74-2.72-7.74-2.72H32.81c-2.98,0-5.71,1.02-7.71,2.73l74.89,57.27,74.94-57.29Z"/><polygon class="c" points="21.54 58.78 21.54 141.87 75.71 100.79 21.54 58.78"/><polygon class="c" points="124.3 100.79 178.46 141.87 178.46 58.76 124.3 100.79"/></g></svg>