<?xml version="1.0" encoding="utf-8"?>
<!-- Generator: Adobe Illustrator 25.0.0, SVG Export Plug-In . SVG Version: 6.00 Build 0)  -->
<svg version="1.1" id="a" xmlns="http://www.w3.org/2000/svg" xmlns:xlink="http://www.w3.org/1999/xlink" x="0px" y="0px"
	 viewBox="0 0 200 200" style="enable-background:new 0 0 200 200;" xml:space="preserve">
<style type="text/css">
	.st0{fill:#F9AC00;}
	.st1{fill:#FFFFFF;}
</style>
<path class="st0" d="M53-25h140c16.6,0,30,13.4,30,30v140c0,16.6-13.4,30-30,30H53c-16.6,0-30-13.4-30-30V5C23-11.6,36.4-25,53-25z"
	/>
<g id="b">
	<path class="st1" d="M100,120l-19.4-15.2l-55.5,42.4c2,1.7,4.7,2.7,7.7,2.7h134.4c3,0,5.7-1,7.7-2.7l-55.5-42.4
		C119.4,104.9,100,120,100,120z"/>
	<path class="st1" d="M174.9,52.7c-2-1.7-4.7-2.7-7.7-2.7H32.8c-3,0-5.7,1-7.7,2.7L100,110L174.9,52.7L174.9,52.7z"/>
	<polygon class="st1" points="21.5,58.8 21.5,141.9 75.7,100.8 	"/>
	<polygon class="st1" points="124.3,100.8 178.5,141.9 178.5,58.8 	"/>
</g>
</svg>
