<?xml version="1.0" encoding="UTF-8"?><svg id="a" xmlns="http://www.w3.org/2000/svg" viewBox="0 0 200 200"><defs><style>.b{fill:#db4639;}</style></defs><path class="b" d="m170,0H30C13.43,0,0,13.43,0,30v140c0,16.57,13.43,30,30,30h140c16.57,0,30-13.43,30-30V30c0-16.57-13.43-30-30-30Zm-52.06,112.39c-.93,3.54-2.26,6.97-3.94,10.23-3.3,6.36-7.96,12.03-13.61,16.44-5.69,4.44-12.35,7.63-19.4,9.18-3.47.78-7.03,1.16-10.59,1.16-27.18,0-49.22-22.38-49.22-50.01s22.04-49.99,49.22-49.99c12.75,0,24.35,4.91,33.09,12.97l-12.68,12.88h-.8c-5.33-4.47-12.15-7.17-19.61-7.17-17.02,0-30.81,14.02-30.81,31.31s13.79,31.33,30.81,31.33c13.51,0,24.98-8.83,29.14-21.13h-28.78v-17.16h48.05v6.56c0,4.54.29,8.99-.87,13.4Zm60.04-5.93h-14.34v14.34h-14.42v-14.34h-14.31v-14.41h14.31v-14.34h14.42v14.34h14.34v14.41Z"/></svg>