<?xml version="1.0" encoding="utf-8"?>
<!-- Generator: Adobe Illustrator 27.3.1, SVG Export Plug-In . SVG Version: 6.00 Build 0)  -->
<svg version="1.1" id="Layer_1" xmlns="http://www.w3.org/2000/svg" xmlns:xlink="http://www.w3.org/1999/xlink" x="0px" y="0px"
	 viewBox="0 0 200 200" style="enable-background:new 0 0 200 200;" xml:space="preserve">
<style type="text/css">
	.st0{fill:#FF35C8;}
	.st1{fill:#FFFFFF;}
</style>
<path class="st0" d="M30,0h140c16.57,0,30,13.43,30,30v140c0,16.57-13.43,30-30,30H30c-16.57,0-30-13.43-30-30V30
	C0,13.43,13.43,0,30,0z"/>
<path class="st1" d="M174.3,65.67c-0.59-8.56-2.87-16.61-7.94-23.58c-8.05-10.82-19.26-15.39-32.27-16.5
	c-11.85-0.82-23.73-0.47-35.58-0.58h-4.48c-10.55,0-21.07-0.13-31.56,1.02c-17.91,2-30.87,13.05-35.27,30.29
	c-2,7.54-2,15.27-2.17,22.96c-0.11,12.07-0.05,24.18,0,36.25c0,7.42,0.1,14.71,1.03,22.13c2.01,17.72,13.05,30.66,30.15,35.23
	c7.56,1.81,15.29,1.81,22.97,2.01c12.14,0.13,24.32,0.13,36.41,0.04c7.31,0,14.54-0.04,21.78-1c19.58-2.29,33.08-14.99,36.23-34.54
	c1.32-7.21,1.32-14.76,1.32-22.22C174.92,99.98,175.46,82.9,174.3,65.67L174.3,65.67z M161.34,109.61c0,7.93,0.06,15.86-0.59,23.79
	c-0.7,7.77-2.94,15.02-9.09,20.55c-4.52,3.79-9.74,5.65-15.5,6.4c-5.88,0.95-11.81,0.95-17.75,0.95c-12.29,0.11-24.61,0.11-37.02,0
	c-6.41-0.13-12.83,0-19.2-1.19c-13.01-2.33-21.07-10.8-22.69-24.02c-0.77-5.84-0.77-11.87-0.89-17.83c-0.1-12.11-0.1-24.5,0-36.76
	c0.11-6.43,0-12.97,1.19-19.45c2.3-12.77,10.9-20.86,23.95-22.48c5.88-0.7,11.88-0.7,17.76-0.94c6.13-0.13,12.35,0,18.5,0
	c11.11,0,22.25-0.24,33.29,0.58c8.01,0.72,15.37,3,20.8,9.43c4.35,5.05,6.09,11.2,6.54,17.67
	C161.61,80.71,161.4,95.19,161.34,109.61L161.34,109.61z"/>
<path class="st1" d="M140.08,68.99c-5.07,0.11-9.14-3.9-9.14-9.08s4.02-8.95,9.02-8.95S149,54.9,149,59.83
	C149.12,64.96,145.08,68.99,140.08,68.99L140.08,68.99z"/>
<path class="st1" d="M133.07,79.35c-3.24-6-8.38-10.89-14.58-13.75v-0.01C89.62,52.28,61.5,72.74,61.42,99.76
	c-0.03,21.46,17.16,38.73,38.6,38.73C127.87,138.49,148.97,108.75,133.07,79.35z M99.8,124.93c-13.73-0.09-24.71-11.21-24.71-25.01
	s11.16-24.85,25.15-24.85s24.65,11.2,24.65,24.92C124.89,113.71,113.72,124.93,99.8,124.93z"/>
</svg>
