<?xml version="1.0" encoding="UTF-8"?><svg id="a" xmlns="http://www.w3.org/2000/svg" xmlns:xlink="http://www.w3.org/1999/xlink" viewBox="0 0 200 200"><defs><style>.d{fill:#f9ac00;}.e{fill:url(#c);}</style><radialGradient id="c" cx="100" cy="100" fx="100" fy="100" r="66.02" gradientUnits="userSpaceOnUse"><stop offset=".22" stop-color="#e7e7e7"/><stop offset=".88" stop-color="#fff"/></radialGradient></defs><rect class="d" width="200" height="200" rx="30" ry="30"/><g id="b"><path class="e" d="m100,25c-30.66,0-55.61,22.26-55.61,49.62,0,11.02,7.89,28.98,24.11,54.92,11.48,18.35,22.76,33.64,23.24,34.28l8.27,11.18,8.27-11.18c.48-.64,11.76-15.94,23.24-34.28,16.22-25.94,24.11-43.9,24.11-54.92,0-27.36-24.95-49.62-55.61-49.62h0Zm0,75c-15.92,0-28.83-11.51-28.83-25.72s12.9-25.72,28.83-25.72,28.83,11.51,28.83,25.72-12.91,25.72-28.83,25.72h0Zm0,0"/></g></svg>