<?xml version="1.0" encoding="UTF-8"?><svg id="a" xmlns="http://www.w3.org/2000/svg" viewBox="0 0 200 200"><defs><style>.b{fill:#fff;}.c{fill:#e61b27;}</style></defs><rect class="c" width="200" height="200" rx="30" ry="30"/><path class="b" d="m158.04,77.74c-.1,3.04-.37,6.07-.83,9.08-.81,5.38-2.13,10.62-4.12,15.7-1.96,5.01-4.5,9.71-7.79,13.97-3.56,4.6-7.77,8.47-12.82,11.41-4.85,2.82-10.06,4.55-15.63,5.22-2.41.29-4.82.42-7.24.24-3.1-.23-6.08-.97-8.94-2.2-2.29-.99-4.43-2.24-6.34-3.86-1.41-1.2-2.65-2.54-3.58-4.15-.05-.09-.12-.18-.24-.35-.73,2.91-1.44,5.75-2.17,8.58-1.32,5.15-2.62,10.31-4,15.44-1.07,3.96-2.76,7.67-4.66,11.3-2.02,3.87-4.33,7.58-6.84,11.16-1.25,1.78-2.54,3.53-3.89,5.24-.35.45-.83.59-1.36.44-.49-.13-.71-.51-.78-.99-.4-2.75-.72-5.51-.95-8.27-.31-3.74-.44-7.49-.34-11.25.07-2.84.3-5.67.7-8.48.42-2.97,1.16-5.86,1.85-8.76,1.06-4.46,2.11-8.93,3.16-13.39,1.05-4.45,2.1-8.9,3.15-13.35,1.05-4.46,2.11-8.92,3.16-13.38.18-.75.32-1.51.51-2.25.08-.31.06-.56-.06-.84-1.3-3.04-2.03-6.23-2.38-9.51-.19-1.74-.25-3.49-.16-5.23.19-3.7.95-7.27,2.55-10.63,1.06-2.22,2.39-4.25,4.17-5.95,3.09-2.97,6.74-4.48,11.07-4.19,4.46.29,8.09,3.08,9.56,7.3,1.02,2.95,1.09,5.96.66,9-.54,3.83-1.62,7.53-2.72,11.22-1.51,5.06-3.16,10.08-4.46,15.21-.62,2.47-.83,4.93-.18,7.41.71,2.71,2.16,4.96,4.34,6.73,2.23,1.81,4.8,2.82,7.65,3.08,4.8.44,9.08-.94,12.94-3.73,3.07-2.22,5.48-5.06,7.49-8.24,2.86-4.54,4.78-9.48,6.12-14.65.97-3.76,1.61-7.57,1.97-11.43.29-3.14.46-6.28.32-9.43-.23-5.16-1.4-10.09-3.87-14.67-1.73-3.21-3.98-6.01-6.77-8.37-3.27-2.76-6.98-4.72-11.04-6.03-2.32-.75-4.7-1.29-7.11-1.62-1.62-.22-3.25-.35-4.89-.42-2.4-.1-4.78-.02-7.17.21-2.71.27-5.37.77-7.98,1.52-2.72.78-5.34,1.81-7.85,3.13-4.15,2.19-7.81,5-10.96,8.48-3.3,3.64-5.83,7.76-7.63,12.32-1.11,2.82-1.89,5.73-2.37,8.73-.42,2.68-.62,5.37-.53,8.07.13,3.78.87,7.43,2.54,10.85.86,1.75,1.95,3.36,3.22,4.85.39.46.76.94,1.05,1.47.44.8.49,1.65.27,2.51-.64,2.57-1.3,5.14-1.96,7.71-.23.88-.66,1.63-1.49,2.09-.87.48-1.79.44-2.68.08-2.9-1.14-5.48-2.8-7.74-4.95-4.08-3.88-6.59-8.69-8.17-14.02-1.04-3.51-1.59-7.1-1.8-10.75-.25-4.46.05-8.87,1.01-13.24.93-4.22,2.36-8.26,4.29-12.12,2.31-4.62,5.23-8.82,8.74-12.63,4.35-4.72,9.38-8.56,15.04-11.57,5.75-3.06,11.86-5.09,18.25-6.28,2.84-.53,5.7-.87,8.58-1.07,2.74-.19,5.49-.25,8.23-.14,5.31.2,10.52,1.04,15.6,2.61,4.29,1.32,8.37,3.11,12.22,5.42,3.3,1.99,6.35,4.31,9.14,6.98,4.37,4.18,7.87,8.99,10.48,14.45,1.92,4.03,3.22,8.25,3.94,12.66.58,3.51.64,7.03.52,10.57Z"/></svg>