<?xml version="1.0" encoding="UTF-8"?><svg id="a" xmlns="http://www.w3.org/2000/svg" xmlns:xlink="http://www.w3.org/1999/xlink" viewBox="0 0 200 200"><defs><style>.c{fill:#fff;}.d{fill:#020202;}.e{fill:url(#b);}</style><radialGradient id="b" cx="100" cy="2778" fx="100" fy="2778" r="100" gradientTransform="translate(0 -2678)" gradientUnits="userSpaceOnUse"><stop offset="0" stop-color="#faf707"/><stop offset=".7" stop-color="#fffc00"/></radialGradient></defs><rect class="e" width="200" height="200" rx="30" ry="30"/><path class="d" d="m82.2,36.1c-3.9,1.7-7.4,4.1-10.5,6.9-3.6,3.4-6.6,7.7-8.7,12.6-3.2,7.2-2.5,19.3-1.8,29h0c0,1.1.1,2.1.2,3.2-.5.2-1.2.4-2.3.4-1.7,0-3.3-.5-4.9-1.1-1.3-.5-2.7-1.1-4.2-1.1-1.4,0-2.9.5-4.1,1.2-1.7,1-2.7,2.4-3,3.9-.2,1-.2,3,2,5,1.2,1.1,3,2.1,5.3,3.1.6.2,1.3.5,2.1.7,2.7.8,6.7,2.1,7.7,4.6.5,1.2.3,2.9-.7,4.9v.2c-1.4,3.2-3.3,6.2-5.4,8.9-2.5,3.4-5.5,6.5-9,9-2.2,1.5-4.5,2.9-7,3.9-2.1.8-4.3,1.2-6.5,1.8-1.7.5-3.2,1.6-3.1,3.6,0,.5.1,1,.4,1.5.7,1.6,2.3,3,4.9,4.2,3.2,1.5,7.9,2.7,14,3.7.3.6.6,2.1.9,3.1.2,1.1.5,2.2.8,3.4.4,1.3,1.3,2.8,3.8,2.8s2-.2,3.3-.5c1.8-.4,4.4-.9,7.5-.9s3.6.2,5.4.5c3.5.6,6.5,2.7,10,5.2.3.2.6.4.9.6,2.2,1.5,4.4,3,6.7,4.2,2.7,1.3,5.5,2.2,8.4,2.7,1.7.2,3.4.3,5.1.2,1.9,0,3.8-.1,5.6-.5,2.9-.6,5.6-1.6,8.1-3,1.2-.6,2.3-1.3,3.4-2.1,1-.7,2.2-1.4,3.1-2.2h0c3.5-2.5,6.5-4.6,10-5.2,1.8-.3,3.6-.5,5.4-.5,3,0,5.4.4,7.5.8,1.4.3,2.5.4,3.3.4h0c1.7,0,3.3-1.1,3.8-2.7.4-1.2.6-2.2.8-3.4.2-.9.5-2.5.9-3.1,6.1-1,10.9-2.2,14-3.6,2.6-1.2,4.2-2.6,4.9-4.2.2-.5.3-1,.4-1.5,0-1.7-1.1-3.2-2.8-3.5-19.2-3.2-27.8-22.9-28.2-23.7v-.2c-1-2-1.2-3.6-.7-4.9,1.1-2.5,5.1-3.7,7.7-4.6.8-.2,1.5-.5,2.1-.7,2.6-1,4.5-2.2,5.7-3.4,1.5-1.5,1.8-3,1.7-3.9,0-3.7-3.7-5.8-7-5.8-1.6,0-3.6.5-5,1.1-1.5.6-3,1-4.6,1.1-.9,0-1.6-.2-2-.4,0-.9.1-1.8.2-2.8v-.4c.6-9.7,1.4-21.8-1.8-29-2.2-4.9-5.2-9.2-8.8-12.6-3-2.9-6.6-5.2-10.5-6.9-4-1.8-8.3-2.8-12.6-3.3-1.7-.2-3.4-.3-5-.3-3.7,0-7.4.4-11,1.3-2.4.6-4.7,1.3-7,2.3h.2Z"/><path class="c" d="m66,57c.2-.5.5-1.1.8-1.6,1.6-3.2,3.7-6.3,6.2-8.9,2.2-2.2,4.6-4.1,7.3-5.7,2.3-1.3,4.8-2.4,7.3-3.2,2.1-.6,4.2-1.1,6.4-1.4,2.1-.3,4.2-.3,6.3-.3s4.2,0,6.3.4c2.2.3,4.5.8,6.6,1.6,2.6.9,5.1,2,7.4,3.5,2.7,1.7,5.1,3.7,7.2,6.1,2.5,2.8,4.5,6,6,9.5,2.9,6.4,2.1,18.1,1.5,27.5,0,1.5-.2,2.9-.2,4.3v.6l.4.4c.2.2,1.7,1.7,5,1.9h.1c1.5,0,2.9-.3,4.3-.8,1.3-.4,2.5-1.1,3.8-1.4,1.4-.3,3.8.3,4.8,1.4.9,1.1,0,2.4-.9,3.1-1.2.9-2.6,1.6-4,2.2-.5.2-1.1.4-1.9.6-3.2,1-8.2,2.6-9.8,6.5-.9,2.2-.7,4.8.8,7.7.6,1.4,9.9,22.3,30.7,25.7v.3c-.4.8-2.6,3.7-16.6,5.9-2.2.3-2.7,2.8-3.4,5.6-.2,1-.4,2.1-.8,3.1,0,.3-.1.3-.4.3h-.2c-.6,0-1.6-.1-2.7-.3-2-.4-4.7-.9-8.2-.9s-3.9.2-5.9.5c-4.3.7-7.8,3.2-11.4,5.8-2.3,1.6-4.5,3.2-7,4.4-2.7,1.4-5.6,2.3-8.6,2.6-.7,0-1.4,0-2,.1-3.2.1-6.4-.2-9.5-1.2-2.7-.9-5.2-2.3-7.5-3.9-1-.6-1.9-1.3-2.9-2-3.7-2.6-7.2-5.1-11.4-5.8-2-.3-4-.5-5.9-.5-3.5,0-6.2.5-8.2.9-1.1.2-2,.4-2.7.4s-.5,0-.6-.4c-.3-1.1-.5-2.1-.8-3.1-.6-2.9-1.2-5.3-3.3-5.6-14-2.2-16.2-5-16.6-5.9v-.3c20.9-3.4,30.1-24.3,30.7-25.7,1.4-2.9,1.7-5.5.8-7.7-1.7-3.9-6.5-5.4-9.8-6.5-.8-.2-1.4-.4-1.9-.6-1.9-.8-7.8-3.5-4-5.9.8-.5,1.7-.8,2.7-.8s1.9.6,2.9.9c1.9.7,3.9,1.2,5.9,1.2,3.6,0,5.2-1.7,5.4-1.9l.4-.4v-.6c0-1.4-.2-2.8-.3-4.3-.6-9.4-1.3-21,1.5-27.5h0l-.1.1Z"/></svg>