<?xml version="1.0" encoding="UTF-8"?><svg id="a" xmlns="http://www.w3.org/2000/svg" viewBox="0 0 200 200"><defs><style>.b{fill:#30a8de;}.c{fill:#fff;}.d{fill:#c8daea;}.e{fill:#a9c6d8;}</style></defs><rect class="b" width="200" height="200" rx="30" ry="30"/><path class="c" d="m181.02,34.96l-25.63,129.21s-3.58,8.96-13.44,4.66l-59.14-45.34-21.51-10.39-36.2-12.19s-5.56-1.97-6.09-6.27c-.54-4.3,6.27-6.63,6.27-6.63L169.19,31.56s11.83-5.2,11.83,3.41Z"/><path class="d" d="m78.26,162.72s-1.73-.16-3.88-6.97c-2.15-6.81-13.08-42.65-13.08-42.65l86.92-55.2s5.02-3.05,4.84,0c0,0,.9.54-1.79,3.05-2.69,2.51-68.28,61.47-68.28,61.47"/><path class="e" d="m105.49,140.88l-23.39,21.33s-1.83,1.39-3.83.52l4.48-39.62"/></svg>