<?xml version="1.0" encoding="UTF-8"?><svg id="a" xmlns="http://www.w3.org/2000/svg" viewBox="0 0 200 200"><defs><style>.b{fill:#fd2b54;}.c{fill:#24f4ee;}.d{fill:#fefeff;}</style></defs><rect width="200" height="200" rx="30" ry="30"/><path class="c" d="m86.82,78.09v4.42c-6.67-.03-13.11,1.29-19.32,4.05-6.6,2.95-12.08,7.25-16.72,12.76-5.45,6.49-8.74,13.95-10,22.27-.8,5.33-.78,10.67.25,16.01.88,4.54,2.33,8.86,4.54,12.88,1.56,2.84,3.37,5.51,5.44,7.99-.35-.28-.7-.58-1.05-.89-4.27-3.79-7.69-8.18-10.4-13.11-2.22-4.01-3.66-8.34-4.54-12.88-1.03-5.34-1.05-10.69-.25-16.01,1.25-8.32,4.54-15.78,10-22.27,4.64-5.51,10.12-9.82,16.72-12.76,7.11-3.17,14.52-4.43,22.25-3.95.64.04,1.28.16,1.92.15.98-.03,1.17.48,1.17,1.34h0Z"/><path class="c" d="m126.1,31.02c-5.87.03-11.72.02-17.59.03q-2.04,0-2.03,2.01v48.31h.02v45.62c0,1.97.09,3.95-.31,5.89-1.74,8.36-8.68,14.83-17.15,15.96-4.35.58-8.56-.03-12.32-2.28-2.86-1.73-5.31-3.91-7.1-6.72.36.25.72.48,1.09.7,3.75,2.26,7.97,2.87,12.32,2.28,8.48-1.13,15.42-7.6,17.15-15.96.4-1.94.31-3.93.31-5.89v-45.62h-.02V27.04c0-2-.02-2.01,2.03-2.01,7.37,0,14.74,0,22.11-.03.92,0,.86.52.89,1.1.09,1.67.29,3.31.6,4.92Z"/><path class="c" d="m159.79,60.41v4.42c-5.75-.73-10.77-3.27-15.31-6.99-2.12-1.74-4.04-3.65-5.69-5.76,5.14,4.14,10.9,6.75,17.63,6.95.75.03,1.5.25,2.24.21.94-.06,1.14.34,1.13,1.18h0Z"/><path class="b" d="m92.83,84.11c-.03,7.97-.04,15.95-.05,23.92,0,1.58.03,1.52-1.48,1.1-3.28-.92-6.58-.76-9.85.05-6.69,1.65-11.11,5.89-13.75,12.15-2.33,5.54-1.82,10.89.68,16.26.37.79.78,1.55,1.24,2.25-3.09-2.07-5.62-4.73-7.25-8.26-2.5-5.37-3.01-10.72-.68-16.26,2.65-6.25,7.06-10.5,13.75-12.15,3.27-.82,6.57-.97,9.85-.05,1.51.42,1.48.48,1.48-1.1,0-6.49.02-13,.04-19.5.97,0,1.95.04,2.93.1.64.04,1.28.16,1.92.15.98-.03,1.17.48,1.17,1.34Z"/><path class="b" d="m165.8,66.42c-.02,7.34,0,14.67,0,22,0,.47,0,.94-.02,1.4,0,.47-.21.7-.74.65-2.74-.24-5.5-.36-8.22-.7-3.99-.49-7.82-1.69-11.54-3.18-4.09-1.62-8.11-3.38-11.77-5.87-.46-.31-.65-.15-.68.34-.04.86-.09,1.72-.09,2.58,0,15.32.11,30.63-.04,45.95-.14,12.94-5.18,23.91-14.53,32.81-5.84,5.57-12.72,9.47-20.65,11.27-6.36,1.44-12.77,1.8-19.25.58-3.82-.71-7.53-1.74-11.07-3.27-4.16-1.8-7.8-4.35-11.22-7.39-1.81-1.6-3.45-3.31-4.96-5.12,3.12,2.65,6.43,4.88,10.17,6.49,3.54,1.54,7.25,2.56,11.07,3.27,6.48,1.22,12.88.86,19.25-.58,7.93-1.8,14.81-5.69,20.65-11.27,9.35-8.9,14.39-19.87,14.53-32.81.15-15.32.03-30.64.04-45.95,0-.86.05-1.72.09-2.58.03-.48.22-.64.68-.34,3.66,2.48,7.68,4.24,11.77,5.87,3.73,1.49,7.55,2.69,11.54,3.18,2.72.33,5.48.46,8.22.7.53.04.73-.18.74-.65.02-.46.02-.93.02-1.4v-17.57c.86.11,1.74.18,2.64.21.75.03,1.5.25,2.24.21.94-.06,1.14.34,1.13,1.18h0Z"/><path class="b" d="m138.79,52.07c-.11-.08-.21-.16-.32-.25-4.21-3.45-7.59-7.57-9.8-12.58-1.18-2.66-2.04-5.41-2.57-8.23h4.52c.92,0,.86.52.89,1.1.26,4.57,1.31,8.96,3.17,13.15,1.09,2.47,2.47,4.74,4.11,6.81h0Z"/><path class="d" d="m159.79,64.83c-.02,5.86,0,11.72,0,17.57,0,.47,0,.94-.02,1.4,0,.47-.21.7-.74.65-2.74-.24-5.5-.36-8.22-.7-3.99-.49-7.82-1.69-11.54-3.18-4.09-1.62-8.11-3.38-11.77-5.87-.46-.31-.65-.15-.68.34-.04.86-.09,1.72-.09,2.58,0,15.32.11,30.63-.04,45.95-.14,12.94-5.18,23.91-14.53,32.81-5.84,5.57-12.72,9.47-20.65,11.27-6.36,1.44-12.77,1.8-19.25.58-3.82-.71-7.53-1.74-11.07-3.27-3.74-1.61-7.05-3.84-10.17-6.49-2.07-2.47-3.87-5.14-5.44-7.99-2.22-4.01-3.66-8.34-4.54-12.88-1.03-5.34-1.05-10.69-.25-16.01,1.25-8.32,4.54-15.78,10-22.27,4.64-5.51,10.12-9.82,16.72-12.76,6.21-2.77,12.64-4.08,19.32-4.05-.03,6.49-.03,13-.04,19.5,0,1.58.03,1.52-1.48,1.1-3.28-.92-6.58-.76-9.85.05-6.69,1.65-11.11,5.89-13.75,12.15-2.33,5.54-1.82,10.89.68,16.26,1.63,3.53,4.16,6.19,7.25,8.26,1.8,2.81,4.24,4.99,7.1,6.72,3.75,2.26,7.97,2.87,12.32,2.28,8.48-1.13,15.42-7.6,17.15-15.96.4-1.94.31-3.93.31-5.89v-45.62h-.02v-48.31c0-2-.02-2.01,2.03-2.01,5.87,0,11.72,0,17.59-.03.53,2.82,1.39,5.57,2.57,8.23,2.21,5.01,5.59,9.12,9.8,12.58.1.09.21.17.32.25,1.66,2.11,3.57,4.02,5.69,5.76,4.54,3.72,9.56,6.26,15.31,6.99h-.02Z"/></svg>