<?xml version="1.0" encoding="UTF-8"?><svg id="a" xmlns="http://www.w3.org/2000/svg" viewBox="0 0 200 200"><defs><style>.b{fill:#fff;}</style></defs><rect width="200" height="200" rx="30" ry="30"/><path class="b" d="m162.41,163.26c-7.48-10.91-14.96-21.81-22.46-32.72-8.88-12.92-17.74-25.86-26.67-38.75-.96-1.39-.93-2.29.2-3.56,3.7-4.16,7.28-8.42,10.91-12.64,11.16-12.98,22.33-25.96,33.49-38.94.3-.35.86-.67.66-1.18-.24-.63-.93-.42-1.43-.43-2.1-.02-4.2.05-6.29-.03-1.56-.06-2.66.48-3.7,1.69-12.68,14.83-25.42,29.62-38.15,44.4-1.66,1.93-1.68,1.92-3.13-.2-10.07-14.65-20.15-29.29-30.17-43.98-.96-1.41-2.02-1.93-3.69-1.92-10.78.06-21.55.03-32.33.03-.42,0-.84,0-1.25.03-.95.04-1.18.46-.65,1.26.4.6.81,1.19,1.21,1.78,15.39,22.4,30.77,44.81,46.21,67.17,1.06,1.54.96,2.48-.22,3.85-13.55,15.66-27.05,31.36-40.56,47.06-2.41,2.8-4.81,5.6-7.52,8.76,3.23,0,6.01-.06,8.8.02,1.4.05,2.3-.48,3.2-1.53,13.51-15.77,27.07-31.51,40.62-47.25,1.73-2.01,1.76-1.99,3.24.17,10.75,15.64,21.5,31.27,32.22,46.93.79,1.15,1.63,1.69,3.07,1.69,11.2-.05,22.39-.03,33.59-.04.5,0,1.22.29,1.47-.29.22-.51-.38-.95-.67-1.38h0Z"/><path d="m146.97,157.28c-2.4-.04-4.79,0-7.19,0-2.15,0-4.31-.09-6.46.03-1.56.08-2.52-.5-3.4-1.77-6.68-9.65-13.43-19.25-20.14-28.86-18.96-27.13-37.92-54.26-56.88-81.39-.23-.35-.47-.69-.71-1.04-.56-.84-.17-1.22.68-1.27.84-.06,1.68-.05,2.52-.05,3.83,0,7.66.04,11.49-.02,1.52-.03,2.54.47,3.43,1.75,19.07,27.35,38.17,54.67,57.27,81.99,6.52,9.32,13.03,18.64,19.55,27.96.24.34.47.69.72,1.03.89,1.19.55,1.67-.88,1.65Z"/></svg>