<?xml version="1.0" encoding="UTF-8"?><svg id="a" xmlns="http://www.w3.org/2000/svg" viewBox="0 0 200 200"><defs><style>.c{fill:#fff;}.d{fill:#f9ac00;}</style></defs><rect class="d" width="200" height="200" rx="30" ry="30"/><path id="b" class="c" d="m183.86,95.01c-2.74-37.43-36.3-67.37-78.24-69.83v-.18h-11.21v.18C52.43,27.64,18.89,57.58,16.14,95.01h-.2v9.99h.2c2.75,37.44,36.29,67.37,78.26,69.82v.18h11.21v-.18c41.94-2.45,75.5-32.38,78.24-69.82h.2v-9.99h-.2Zm-115.28-53.65c-5.43,6.42-9.94,14.46-13.19,23.65h-16.8c7.32-10.18,17.71-18.39,29.99-23.65Zm-35.84,33.63h19.69c-1.5,6.33-2.46,13.03-2.77,20.01h-22.31c.6-7.03,2.45-13.79,5.38-20.01Zm-5.38,30h22.31c.31,6.96,1.26,13.7,2.77,20h-19.69c-2.93-6.23-4.78-12.95-5.38-20Zm11.23,30.01h16.77c3.28,9.17,7.8,17.22,13.22,23.66-12.28-5.26-22.67-13.49-29.99-23.66Zm55.82,29.36c-11.52-2.74-21.43-13.78-27.48-29.36h27.48v29.36Zm0-39.37h-30.61c-1.59-6.23-2.6-12.95-2.93-20h33.54v20Zm0-29.98h-33.54c.33-7.03,1.34-13.79,2.93-20.01h30.61v20.01Zm0-30h-27.48c6.05-15.58,15.96-26.62,27.48-29.37v29.37Zm67.01,0h-16.77c-3.3-9.19-7.77-17.23-13.19-23.65,12.26,5.26,22.67,13.46,29.96,23.65Zm-55.8-29.37c11.53,2.75,21.44,13.79,27.47,29.37h-27.47v-29.37Zm0,39.35h30.6c1.61,6.23,2.56,12.98,2.92,20.01h-33.52v-20.01Zm0,30h33.52c-.33,7.05-1.32,13.77-2.92,20h-30.6v-20Zm0,59.36v-29.36h27.47c-6.03,15.58-15.94,26.62-27.47,29.36Zm25.84-5.7c5.41-6.43,9.89-14.48,13.19-23.66h16.77c-7.3,10.17-17.71,18.4-29.96,23.66Zm35.82-33.67h-19.72c1.52-6.3,2.46-13.03,2.79-20h22.31c-.61,7.05-2.46,13.77-5.38,20Zm-16.93-29.98c-.33-6.98-1.27-13.68-2.79-20.01h19.72c2.92,6.23,4.78,12.98,5.38,20.01h-22.31Z"/></svg>