<?xml version="1.0" encoding="UTF-8"?><svg id="a" xmlns="http://www.w3.org/2000/svg" xmlns:xlink="http://www.w3.org/1999/xlink" viewBox="0 0 200 200"><defs><style>.d{fill:#57c965;}.e{fill:url(#b);}.f{fill:url(#c);}</style><radialGradient id="b" cx="75.5" cy="168.63" fx="75.5" fy="168.63" r="139.14" gradientUnits="userSpaceOnUse"><stop offset=".22" stop-color="#e7e7e7"/><stop offset=".88" stop-color="#fcfcfc"/></radialGradient><radialGradient id="c" cx="76.97" cy="139.49" fx="76.97" fy="139.49" r="62.25" gradientUnits="userSpaceOnUse"><stop offset=".22" stop-color="#e7e7e7"/><stop offset=".88" stop-color="#fff"/></radialGradient></defs><rect class="d" width="200" height="200" rx="30" ry="30"/><path class="e" d="m101.01,35c-35.56,0-64.39,28.82-64.39,64.39,0,12.02,3.3,23.25,9.03,32.88l-8.12,32.73,32.27-9.29c9.25,5.13,19.89,8.07,31.21,8.07,35.56,0,64.39-28.83,64.39-64.39s-28.83-64.39-64.39-64.39Zm.73,118.09c-11.25,0-21.68-3.49-30.29-9.42l-18.37,5.3,4.7-18.93c-5.98-8.64-9.49-19.11-9.49-30.4,0-29.53,23.93-53.46,53.46-53.46s53.46,23.93,53.46,53.46-23.93,53.46-53.46,53.46Z"/><path class="f" d="m84.73,94.29c.75-.86,1.49-1.72,2.24-2.58,1.25-1.46,3.13-2.86,3.23-4.95.09-2.01-.62-4.02-1.33-5.84-.46-1.17-.93-2.34-1.38-3.53-.81-2.14-1.86-5.14-3.05-6.4-1.6-1.7-4.34-2.06-6.51-1.01,0,0-12.63,6.07-8.74,18.22,0,0,7.53,34.26,45.44,41.31,0,0,13.6,1.95,17.25-6.32.79-1.78,1.32-4.29,1.19-6.23-.13-1.88-1.46-3.13-3.01-4.02-2-1.14-3.77-2.21-6.05-3.34-1.98-.97-4.24-2.41-6.52-1.78-1.67.46-2.86,1.98-3.99,3.19-1.47,1.56-2.98,3.1-4.47,4.65,0,0-19.2-7.05-24.3-21.38Z"/></svg>