<?xml version="1.0" encoding="UTF-8"?><svg id="a" xmlns="http://www.w3.org/2000/svg" viewBox="0 0 200 200"><defs><style>.c{fill:#fff;}.d{fill:#ed1d24;}</style></defs><g id="b"><rect class="d" width="200" height="200" rx="30" ry="30"/><path class="c" d="m143.72,50H56.28c-13.45,0-24.41,10.96-24.41,24.41v51.18c0,13.51,10.96,24.41,24.41,24.41h87.44c13.45,0,24.41-10.9,24.41-24.41v-51.18c0-13.45-10.96-24.41-24.41-24.41Zm-24.05,57.34l-29.62,17.12c-5.62,3.26-12.74-.82-12.74-7.34v-34.18c0-6.58,7.11-10.66,12.74-7.34l29.62,17.06c5.68,3.26,5.68,11.43,0,14.69Z"/><path class="d" d="m119.67,107.34l-29.62,17.12c-5.62,3.26-12.74-.82-12.74-7.34v-34.18c0-6.58,7.11-10.66,12.74-7.34l29.62,17.06c5.68,3.26,5.68,11.43,0,14.69Z"/></g></svg>